<?xml version="1.0" encoding="utf-8"?>
<!-- Generator: Adobe Illustrator 23.0.1, SVG Export Plug-In . SVG Version: 6.00 Build 0)  -->
<svg version="1.1" id="Layer_1" width="250" height="80" x="0px" y="0px" xmlns="http://www.w3.org/2000/svg" xmlns:xlink="http://www.w3.org/1999/xlink"
	 viewBox="0 0 250 80" style="enable-background:new 0 0 250 80;" xml:space="preserve">
<style type="text/css">
	.st0{fill:#9DBE0B;}
	.st1{fill:#091858;}
	.st2{fill:#FFFFFF;}
	.st3{fill:#081959;}
	.st4{fill:#09185A;}
</style>
<g>
	<path class="st0" d="M24.5,9C11,9,0,20,0,33.5S11,58,24.5,58c2.2,0,4.4-0.3,6.4-0.9l-0.3-10.6L30,45.5c0,0-5.3-0.7-7.3-2.8
		c-0.6-0.6-0.8-1.6-0.4-2.4c0.4-1,1.5-2.4,4-3.4c4.1-1.6,7.2-0.5,7.9,0.1c0,0,1.5,0.4,2.6,2.5c1,2.1-0.5,3.8-1.5,4
		c-1,0.2-1.9-0.2-1.9-0.2s-0.7-0.3-0.8,0.8c-0.1,1.2-0.6,2-0.9,2.3c-0.2,0.2-0.4,0.3-0.5,0.6L31.5,57c10.2-3,17.6-12.4,17.6-23.5
		C49.1,20,38.1,9,24.5,9z"/>
	<path class="st1" d="M30.2,38.8c0,0-0.1-0.1-0.1-0.2c0.1-0.1,0.1-0.3,0.3-0.3c0.1,0,0.2,0.1,0.3,0.2c0.1,0.2,0,0.2,0,0.2
		s0.3,0.2,0.2,0.4c0,0,0.3,0.2,0.1,0.5c0,0,0.3,0.1,0.1,0.5c0,0,0.3,0.1,0,0.4c0,0,0.4,0.2,0.1,0.4c0,0,0.2,0.1,0.1,0.2
		c0,0,0.3,0.1,0.2,0.3s-0.1,0.2-0.4,0.2c-0.3,0-1-0.6-1-0.6s-0.2-0.2-0.3-0.2c-0.1,0,0-0.3,0.1-0.3c0,0,0-0.2,0.1-0.2
		c0,0-0.1-0.1-0.1-0.3s0.2-0.3,0.2-0.3s-0.2-0.2-0.1-0.3c0-0.2,0.2-0.2,0.2-0.2S29.9,39,30,38.9C30.1,38.8,30.1,38.8,30.2,38.8z"/>
	<path class="st1" d="M51.2,17.7c-2.4-5.1-6.1-6-6.1-6c-1.8-1.5-8.9-4-18.8-0.2c-5.9,2.3-8.4,5.7-9.5,8.1c-0.9,1.9-0.5,4.1,0.9,5.7
		c4.7,5,17.3,6.7,17.3,6.7l0.8,1.4c0.5,0.8,0.7,1.7,0.7,2.6l1,33.6l1.3,0.9l-1-35c0.2-0.7,0.6-0.8,1.2-1.3c0.7-0.7,2-2.6,2.2-5.4
		c0.3-2.8,1.8-2,1.8-2s2.1,0.9,4.5,0.6C50.1,26.7,53.7,22.8,51.2,17.7z"/>
	<path class="st2" d="M35.5,15.3c0,0-0.3-0.2-0.2-0.5s0.3-0.6,0.6-0.6c0.3,0,0.5,0.1,0.8,0.5c0.3,0.4,0,0.5,0,0.5s0.8,0.4,0.4,1
		c0,0,0.7,0.4,0.2,1.1c0,0,0.6,0.2,0.2,1.1c0,0,0.8,0.3,0,1c0,0,1,0.5,0.3,0.9c0,0,0.4,0.3,0.1,0.5c0,0,0.6,0.4,0.6,0.6
		c0,0.3-0.3,0.6-1.1,0.6c-0.7,0-2.3-1.5-2.3-1.5s-0.5-0.3-0.6-0.4c-0.4-0.5,0-0.8,0-0.9c0,0,0.2-0.2,0.3-0.3
		c0.1-0.1-0.3-0.2-0.3-0.8c0-0.5,0.4-0.7,0.4-0.7s-0.4-0.4-0.3-0.8c0.1-0.4,0.5-0.6,0.5-0.6s-0.5-0.4-0.2-0.7
		C35.3,15.4,35.4,15.4,35.5,15.3z"/>
</g>
<g>
	<path class="st3" d="M71.3,30.2h-1.4h-2.3h-1.6H66h-0.1v0c-0.8,0.1-1.4,0.7-1.4,1.5v18.4c0,0.9,0.7,1.6,1.6,1.6H66h0h1.6h1.7h2
		c5.2,0,9.4-4.2,9.4-9.4v-2.7C80.7,34.4,76.5,30.2,71.3,30.2z M77.1,42.9c0,3.3-2.7,6-6,6h-3.5V33.1h3.5c3.3,0,6,2.7,6,6V42.9z"/>
</g>
<path class="st3" d="M123.1,28.3L123.1,28.3c-0.8,0-1.5,0.7-1.5,1.5v20.4c0,0.8,0.7,1.5,1.5,1.5h0c0.8,0,1.5-0.7,1.5-1.5V29.8
	C124.6,29,123.9,28.3,123.1,28.3z"/>
<path class="st3" d="M204.8,28.3L204.8,28.3c-0.9,0-1.6,0.7-1.6,1.6v20.2c0,0.9,0.7,1.6,1.6,1.6l0,0c0.9,0,1.6-0.7,1.6-1.6V29.9
	C206.4,29,205.7,28.3,204.8,28.3z"/>
<path class="st3" d="M226.3,28.3L226.3,28.3c-0.9,0-1.6,0.7-1.6,1.6v20.2c0,0.9,0.7,1.6,1.6,1.6h0c0.9,0,1.6-0.7,1.6-1.6V29.9
	C227.9,29,227.2,28.3,226.3,28.3z"/>
<path class="st3" d="M232.3,34.9L232.3,34.9c-0.9,0-1.6,0.7-1.6,1.6v13.5c0,0.9,0.7,1.6,1.6,1.6h0c0.9,0,1.6-0.7,1.6-1.6V36.6
	C233.9,35.7,233.2,34.9,232.3,34.9z"/>
<ellipse class="st3" cx="232.4" cy="31.3" rx="2" ry="2"/>
<g>
	<path class="st3" d="M112.6,35.1c-1.5,0-2.8,0.5-3.9,1.4c-0.1,0.1-0.2,0-0.2-0.1c0-1.1,0-4.6,0-6.6c0-0.8-0.7-1.5-1.5-1.5h0
		c-0.8,0-1.5,0.7-1.5,1.5v20.4c0,0.8,0.7,1.5,1.5,1.5h0.1c0.8,0,1.4-0.6,1.4-1.4v0c1.1,0.9,2.4,1.4,4.1,1.4c3.7,0,6.8-3.1,6.8-8.3
		C119.3,38.1,116.3,35.1,112.6,35.1z M112.3,48.9c-2.6,0-4-2.5-4-5.5c0-3,1.6-5.5,4-5.5c2.4,0,4,2.5,4,5.5
		C116.3,46.4,114.8,48.9,112.3,48.9z"/>
</g>
<path class="st3" d="M153.4,36.8v9.1c0,1.6-1.3,2.9-2.9,2.9h-0.6c-1.6,0-2.9-1.3-2.9-2.9v-9.1c0-0.9-0.7-1.6-1.6-1.6h0
	c-0.9,0-1.6,0.7-1.6,1.6v9.1c0,3.2,2.6,5.8,5.8,5.8h1.3c3.2,0,5.9-2.6,5.9-5.9v-9.1c0-0.9-0.7-1.6-1.6-1.6l0,0
	C154.2,35.2,153.4,35.9,153.4,36.8z"/>
<g>
	<path class="st3" d="M139.5,35.2L139.5,35.2c-0.9,0-1.6,0.7-1.6,1.5v0c-1.2-0.9-2.6-1.5-4.1-1.5c-4,0-7,3.7-7,8.3s3.1,8.3,7,8.3
		c1.5,0,3-0.6,4.1-1.5v0c0,0.8,0.7,1.5,1.5,1.5h0.1c0.8,0,1.5-0.7,1.5-1.5V36.7C141,35.9,140.3,35.2,139.5,35.2z M133.9,48.9
		c-2.3,0-4.1-2.5-4.1-5.5s1.8-5.5,4.1-5.5c2.3,0,4,2.5,4,5.5S136.2,48.9,133.9,48.9z"/>
</g>
<path class="st3" d="M179.2,35.2c-0.8-0.4-1.8,0-2.1,0.9l-3.3,10c0,0,0,0,0,0l-3.3-10c-0.2-0.6-0.8-1-1.5-1c-0.6,0-1.3,0.4-1.5,1
	l-3.3,10c0,0,0,0,0,0l-3.3-10c-0.3-0.8-1.2-1.3-2.1-0.9c-0.7,0.3-1,1.2-0.8,2l4.7,13.5c0.1,0.4,0.4,0.8,0.8,1c0.9,0.4,1.8-0.1,2-0.9
	l3.4-9.7l3.4,9.6c0.1,0.4,0.4,0.8,0.8,1c0.9,0.4,1.8-0.1,2-0.9l4.8-13.5C180.2,36.4,179.9,35.5,179.2,35.2z"/>
<path class="st4" d="M89.3,48.8h-0.3c-2.2,0-4-1.8-4-4v0c0,0,0,0,0,0h6H94h0.8c0.7,0,1.3-0.6,1.3-1.3l0,0c0-4.6-3.3-8.3-7.3-8.3
	c-4,0-7.3,3.7-7.3,8.3s3.3,8.3,7.3,8.3c0,0,3.3,0.3,5.7-1.8c2.5-2.1,0.3-4-0.9-2.8c-0.9,0.9-1.6,1.2-2.4,1.5
	C90.6,48.7,89.9,48.8,89.3,48.8z M84.9,41.9c0-2.4,2.1-4.3,4.5-4c2,0.3,3.5,2.1,3.5,4.1v0.1c0,0,0,0,0,0h-7.9V41.9z"/>
<path class="st4" d="M187.7,48.8h-0.3c-2.2,0-4-1.8-4-4v0c0,0,0,0,0,0h6h3.1h0.8c0.7,0,1.3-0.6,1.3-1.3l0,0c0-4.6-3.3-8.3-7.3-8.3
	c-4,0-7.3,3.7-7.3,8.3s3.3,8.3,7.3,8.3c0,0,3.3,0.3,5.7-1.8c2.5-2.1,0.3-4-0.9-2.8c-0.9,0.9-1.6,1.2-2.4,1.5
	C189.1,48.7,188.4,48.8,187.7,48.8z M183.3,41.9c0-2.4,2.1-4.3,4.5-4c2,0.3,3.5,2.1,3.5,4.1v0.1c0,0,0,0,0,0h-7.9V41.9z"/>
<path class="st4" d="M216,48.8h-0.3c-2.2,0-4-1.8-4-4v0c0,0,0,0,0,0h6h3.1h0.8c0.7,0,1.3-0.6,1.3-1.3l0,0c0-4.6-3.3-8.3-7.3-8.3
	c-4,0-7.3,3.7-7.3,8.3s3.3,8.3,7.3,8.3c0,0,3.3,0.3,5.7-1.8c2.5-2.1,0.3-4-0.9-2.8c-0.9,0.9-1.6,1.2-2.4,1.5
	C217.4,48.7,216.7,48.8,216,48.8z M211.6,41.9c0-2.4,2.1-4.3,4.5-4c2,0.3,3.5,2.1,3.5,4.1v0.1c0,0,0,0,0,0h-7.9V41.9z"/>
<path class="st4" d="M243.1,48.8h-0.3c-2.2,0-4-1.8-4-4v0c0,0,0,0,0,0h6h3.1h0.8c0.7,0,1.3-0.6,1.3-1.3l0,0c0-4.6-3.3-8.3-7.3-8.3
	c-4,0-7.3,3.7-7.3,8.3s3.3,8.3,7.3,8.3c0,0,3.3,0.3,5.7-1.8c2.5-2.1,0.3-4-0.9-2.8c-0.9,0.9-1.6,1.2-2.4,1.5
	C244.5,48.7,243.8,48.8,243.1,48.8z M238.7,41.9c0-2.4,2.1-4.3,4.5-4c2,0.3,3.5,2.1,3.5,4.1v0.1c0,0,0,0,0,0h-7.9V41.9z"/>
</svg>
